<svg xmlns="http://www.w3.org/2000/svg" width="1200" height="300" viewBox="0 0 1200 300" role="img" aria-labelledby="title desc" shape-rendering="geometricPrecision">
  <title id="title">EARL Lab masthead - dark theme</title>
  <desc id="desc">Dark-theme EARL Lab masthead with a dark-purple background and the full laboratory name.</desc>
  <rect width="1200" height="300" fill="#38214F"/>
  <g transform="translate(100 48) scale(1.15)">
    <g fill="#FAFAFA">
      <rect x="0" y="0" width="96" height="24" rx="4"/><rect x="0" y="128" width="96" height="24" rx="4"/>
      <path fill-rule="evenodd" d="M120 152V48C120 17 137 0 169 0C201 0 218 17 218 48V152H190V92H148V152H120ZM148 66H190V48C190 34 183 27 169 27C155 27 148 34 148 48V66Z"/>
      <path fill-rule="evenodd" d="M252 0H330C364 0 382 17 382 48C382 70 371 85 350 91L390 146L360 152L319 96H280V152H252V0ZM280 26V70H329C346 70 354 63 354 48C354 33 346 26 329 26H280Z"/>
      <path d="M420 0H448V126H540V152H420Z"/>
    </g>
    <rect x="0" y="64" width="76" height="24" rx="4" fill="#31D6F2"/>
    <text x="570" y="143" fill="#983BFE" font-family="'Helvetica Neue','TeX Gyre Heros',Arial,sans-serif" font-size="112" font-weight="300" letter-spacing="-4" textLength="210" lengthAdjust="spacingAndGlyphs">Lab</text>
  </g>
  <text x="100" y="264" fill="#FAFAFA" font-family="'Helvetica Neue','TeX Gyre Heros',Arial,sans-serif" font-size="25" font-weight="500" letter-spacing=".15">Embodied Autonomy and Robot Learning Lab</text>
</svg>
