<svg xmlns="http://www.w3.org/2000/svg" width="1280" height="640" viewBox="0 0 1280 640" role="img" aria-labelledby="title desc" shape-rendering="geometricPrecision">
  <title id="title">EARL Research Skills</title>
  <desc id="desc">Social preview for the EARL Lab open-source research operating system for Robotics and AI.</desc>
  <rect width="1280" height="640" fill="#38214F"/>

  <g transform="translate(82 72) scale(1.2)">
    <g fill="#FAFAFA">
      <rect x="0" y="0" width="96" height="24" rx="4"/>
      <rect x="0" y="128" width="96" height="24" rx="4"/>
      <path fill-rule="evenodd" d="M120 152V48C120 17 137 0 169 0C201 0 218 17 218 48V152H190V92H148V152H120ZM148 66H190V48C190 34 183 27 169 27C155 27 148 34 148 48V66Z"/>
      <path fill-rule="evenodd" d="M252 0H330C364 0 382 17 382 48C382 70 371 85 350 91L390 146L360 152L319 96H280V152H252V0ZM280 26V70H329C346 70 354 63 354 48C354 33 346 26 329 26H280Z"/>
      <path d="M420 0H448V126H540V152H420Z"/>
    </g>
    <rect x="0" y="64" width="76" height="24" rx="4" fill="#31D6F2"/>
    <text x="570" y="143" fill="#983BFE" font-family="Helvetica Neue,Arial,sans-serif" font-size="112" font-weight="300" textLength="210" lengthAdjust="spacingAndGlyphs">Lab</text>
  </g>

  <text x="82" y="310" fill="#FAFAFA" font-family="Helvetica Neue,Arial,sans-serif" font-size="27" font-weight="500">Embodied Autonomy and Robot Learning Lab</text>
  <rect x="82" y="352" width="96" height="6" rx="3" fill="#31D6F2"/>
  <text x="82" y="425" fill="#FAFAFA" font-family="Helvetica Neue,Arial,sans-serif" font-size="42" font-weight="600">An open-source research operating system</text>
  <text x="82" y="480" fill="#FAFAFA" font-family="Helvetica Neue,Arial,sans-serif" font-size="42" font-weight="600">for Robotics &amp; AI.</text>
  <text x="82" y="570" fill="#EDDEFF" font-family="Helvetica Neue,Arial,sans-serif" font-size="25" font-weight="400">Within UCL Robotics &amp; AI at University College London</text>
</svg>
